<?xml version="1.0" encoding="utf-8"?>
<!-- Generator: Adobe Illustrator 22.1.0, SVG Export Plug-In . SVG Version: 6.00 Build 0)  -->
<svg version="1.1" id="myBowl" xmlns="http://www.w3.org/2000/svg" xmlns:xlink="http://www.w3.org/1999/xlink" x="0px" y="0px"
	 viewBox="0 0 491 410" style="enable-background:new 0 0 491 410;" xml:space="preserve" id="myBowl">
<style type="text/css">
	.st0{fill:#603813;}
	.st1{fill:#1B1464;}
	.st2{fill:url(#SVGID_1_);}
	.st3{fill:url(#SVGID_2_);}
	.st4{fill:url(#SVGID_3_);}
</style>
<path id="soop" class="st0" d="M89.2,255.3c-20.4,4.7-40.8,9.5-61.2,14.2c-4.9,1.1-9.7,2.3-14.6,3.4c-6.3,1.4-11.3-0.8-12.6-5.7
	c-1.5-5.3,1.4-9.5,8.2-11.4c48.7-13.6,97.4-27.1,146.1-40.8c3.8-1.1,7.6-2.6,10.9-4.6c89.8-53.5,179.6-107,269.4-160.6
	c5.8-3.4,11.6-5,18.1-3.3c7.8,2.1,12.9,8.4,13.5,16.1c0.7,9.1-3.2,15.3-10.9,19.4c-28.4,15.1-56.6,30.4-84.9,45.6
	c-32.2,17.3-64.5,34.7-96.7,52c-1.6,0.9-3.2,1.8-4.5,3.3c5.4-1.5,10.7-2.9,16.1-4.4c59.9-16.7,119.9-33.4,179.8-50.1
	c7.5-2.1,14.4-1.1,19.7,4.8c5.1,5.7,6.7,12.6,4.5,20c-2,6.6-6.6,10.6-13.3,12.2c-101.3,23.5-202.6,46.9-303.9,70.5
	c-3.3,0.8-6.7,2.1-9.7,3.7c-40.8,21.8-81.5,43.8-122.3,65.7c-1.2,0.6-2.3,1.3-3.5,1.9c-5.2,2.4-10,1.3-12.2-2.9
	c-2.5-4.6-1-9.2,4-12.2c11.4-6.9,22.9-13.6,34.3-20.5c8.7-5.2,17.3-10.4,26-15.6C89.5,255.7,89.3,255.5,89.2,255.3z"/>
<g id="bowl">
	<path class="st1" d="M322.4,359.9c0.2,0.5,0.2,0.7,0.3,0.7c13.2,10.4,10.3,21.6-2.9,30c-13.3,8.4-28.3,12.3-43.7,14.9
		c-39.9,6.8-79.6,6.4-118.9-3.6c-8.8-2.2-17.1-6.4-25.5-9.9c-2.5-1.1-4.8-3-6.9-4.8c-9-7.8-9.1-16.2-0.5-24.3c1-0.9,1.9-1.8,3.3-3.1
		c-22-13.6-40.8-30.1-56.3-51c1.4-0.9,2.6-1.7,3.8-2.4c32.3-17.2,64.5-34.7,97.2-51.2c8.6-4.3,18.7-5.7,28.2-7.9
		c70.3-16.3,140.7-32.5,211-48.7c1.1-0.3,2.2-0.4,4.4-0.7C412.6,268.4,381.4,321.9,322.4,359.9z"/>
	<path class="st1" d="M36.4,230.8c-1.1-12.1-2.1-23.3-3.1-35c41.3,0,81.8,0,122.2,0c0.1,0.4,0.2,0.9,0.3,1.3
		C116.4,208.3,77,219.4,36.4,230.8z"/>
</g>
<g id="Steam">
	<linearGradient id="SVGID_1_" gradientUnits="userSpaceOnUse" x1="211.8917" y1="79.9354" x2="249.3615" y2="79.9354">
		<stop  offset="0" style="stop-color:#FFFFFF"/>
		<stop  offset="1" style="stop-color:#000000;stop-opacity:0.2"/>
	</linearGradient>
	<path class="st2" d="M229,0.4c0,7.9-0.5,15.8,0.1,23.7c0.8,11.1,4,21.7,9.9,31.1c11.2,17.8,12.8,36.9,7.3,56.6
		c-4.2,15.1-11.1,29.2-20.9,41.7c-1.9,2.5-4.7,4.3-7.1,6.4c-0.4-0.2-0.7-0.5-1.1-0.7c0.2-2.8,0.3-5.5,0.5-8.3
		c1.3-18.9,3.3-37.8,3.5-56.8c0.1-9.2-2.5-18.7-5-27.7c-5.7-20.3-7.1-40,5.2-58.6c1.9-2.9,4.4-5.3,6.7-7.9
		C228.3,0.1,228.6,0.3,229,0.4z"/>
	<linearGradient id="SVGID_2_" gradientUnits="userSpaceOnUse" x1="139.9576" y1="105.9847" x2="168.6223" y2="105.9847">
		<stop  offset="0" style="stop-color:#FFFFFF"/>
		<stop  offset="1" style="stop-color:#000000;stop-opacity:0.2"/>
	</linearGradient>
	<path class="st3" d="M152.6,48.5c-3.4,13,1,24.7,6.1,36.2c1.3,3,4.3,5.2,5.9,8.1c5.2,9.6,4.5,19.9,2.4,30.2
		c-3.2,15.3-11.7,27.6-21.7,40.8c1.4-11.2,2.3-21,3.9-30.8c2.4-15.4,0.2-30-6.2-44.2c-4.7-10.3-3.7-20.8,1.8-30.7
		c1.9-3.4,4.3-6.6,6.5-9.9C151.7,48.3,152.2,48.4,152.6,48.5z"/>
	<linearGradient id="SVGID_3_" gradientUnits="userSpaceOnUse" x1="293.6067" y1="78.73" x2="319.8406" y2="78.73">
		<stop  offset="0" style="stop-color:#FFFFFF"/>
		<stop  offset="1" style="stop-color:#000000;stop-opacity:0.2"/>
	</linearGradient>
	<path class="st4" d="M319.8,99.3c-5.7,3.5-11,6.8-15.9,9.9c-3-7.8-5.8-15.3-8.7-22.8c-4.4-11.3,0.7-29.9,11-38.2
		C301.9,67.6,311.6,82.9,319.8,99.3z"/>
</g>
</svg>
