<?xml version="1.0" encoding="utf-8"?>
<!-- Generator: Adobe Illustrator 22.1.0, SVG Export Plug-In . SVG Version: 6.00 Build 0)  -->
<svg version="1.1" id="Fresh_cake" xmlns="http://www.w3.org/2000/svg" xmlns:xlink="http://www.w3.org/1999/xlink" x="0px" y="0px"
	 viewBox="0 0 414 492" style="enable-background:new 0 0 414 492;" xml:space="preserve">
<style type="text/css">
	.st0{fill:#EA0CEA;}
	.st1{fill:#42210B;}
	.st2{fill:#FBB03B;}
	.st3{fill:#FFFF00;}
</style>
<path id="cake_with_candle" class="st0" d="M14.4,342.9c0-2.9,0-4.5,0-6c0-44.2,0.1-88.3-0.1-132.5c0-8.2,3.2-13.6,9.9-17.6
	c12.7-7.5,26.7-11.1,41-13.7c15.7-2.9,31.6-4.9,47.4-7c3.5-0.4,4.4-1.5,4.4-4.8c-0.1-20.7-0.1-41.3-0.1-62
	c0-10.3,6.3-17.3,15.3-17.2c9.1,0.1,15.3,7,15.3,17.3c0.1,19.2,0,38.3,0,57.5c0,1.8,0,3.6,0,6c2.4,0,4.5,0.1,6.6,0
	c11.5-0.4,23-0.9,34.5-1.1c3.9,0,5.1-1.1,5.1-5.1c-0.2-22.5-0.1-45-0.1-67.5c0-10.4,5.7-17,14.6-17.3c8.7-0.4,15.7,6,15.8,15
	c0.2,18,0.1,36,0.1,54c0,5.7-0.1,11.3,0.1,17c0.1,1.3,1.6,3.6,2.6,3.6c14.3,0.2,28.5,0.2,43.4,0.2c0-1.1,0-3,0-5
	c0-19.3-0.1-38.7,0.1-58c0.1-11.9,9.8-19.4,20.3-15.7c6.3,2.2,10.3,7.7,10.3,15c0.1,20.8,0,41.7,0,62.5c0,1.5,0,3,0,5
	c7.1,0.9,14,1.3,20.8,2.6c19.1,3.8,38.2,7.5,57,12.2c6.4,1.6,12.4,5.5,18.2,9c4.7,2.8,6.6,7.5,6.5,13.2c-0.2,13.2,0,26.3-0.1,39.5
	c0,2.2-0.5,4.7-1.7,6.5c-13.5,20.9-27.6,41.3-44.8,59.3c-5.7,6-12.1,11.5-18.9,16.2c-9,6.3-16.9,5.7-25-1.8
	c-5.9-5.5-11-12-16.2-18.3c-6-7.2-11.4-14.8-17.7-21.7c-3.6-4-8.1-7.5-12.7-10.3c-11.9-7.2-24.1-7-34.9,2
	c-6.7,5.6-12.4,12.5-17.8,19.4c-5.8,7.5-10.5,15.8-16,23.5c-3.3,4.6-6.7,9.2-10.7,13.2c-7.6,7.9-15.1,9.5-24.9,4.5
	c-7.5-3.8-14.3-9-21.3-13.9c-10.4-7.2-20.1-15.4-30.9-21.9c-15.6-9.3-31.7-9-47.2,0.7c-4.1,2.6-8.5,4.9-12,8.1
	c-10.9,10-21.5,20.3-32.2,30.6C17.5,339.3,16.5,340.6,14.4,342.9z"/>
<path id="cake_bottom" class="st1" d="M24.8,460.7c0-12.3,0-24.2,0-36.2c0-17.3-0.1-34.7,0.1-52c0-2,0.5-4.4,1.8-5.9
	c9.8-12.1,21-22.7,34.4-30.9c16.7-10.1,33.4-10.5,49.9,0.1c9.1,5.8,17.7,12.5,26.9,18.2c7.9,4.9,16.1,9.5,24.6,13
	c10.4,4.3,20.6,2.1,28.7-5.7c7.2-6.9,13.5-14.6,19.9-22.3c6.9-8.3,12.8-17.5,20.1-25.5c13.7-15.1,24.3-15.1,38.1,0.1
	c7,7.7,12.8,16.6,19.5,24.7c6.2,7.6,12.2,15.5,19.4,22.1c11.4,10.6,22.3,11.1,35.5,2.9c11.7-7.3,20.6-17.4,28.6-28.3
	c7.2-9.8,13.8-20,20.8-30.4c0,52,0,104,0,156.2C270.3,460.7,148,460.7,24.8,460.7z"/>
<path id="base" class="st2" d="M209.1,491.8c-63.5,0-126.9,0-190.4,0c-9.5,0-14.6-3.7-14.5-10.5c0.1-6.6,5.1-10.1,14.4-10.1
	c126.9,0,253.9,0,380.8,0c9.6,0,14.7,3.7,14.5,10.5c-0.1,6.7-5.1,10.2-14.4,10.2C336,491.8,272.5,491.8,209.1,491.8z"/>
<path id="third_light" class="st3" d="M301.2,10.8c-5.1,11.2-4,21.1,1.6,30.9c1.9,3.3,2.8,7.5,3.2,11.4c1,9.5-3,15.6-12.3,17.5
	c-5.2,1.1-11,1-16.2-0.2c-9.1-2-12.9-8.5-12-17.9c2.1-21.7,13-35.9,31.4-41.1C297.9,11.2,299.1,11.2,301.2,10.8z"/>
<path id="second_light" class="st3" d="M147.2,10.8c-0.7,2.4-1.2,4.2-1.7,5.9c-2.3,7.2-1.5,13.9,1.6,20.8c2.4,5.4,4.3,11.1,5.4,16.9
	c1.2,6.6-2,11.7-8,14.6c-7.7,3.9-15.7,4-23.6,0.5c-6-2.7-9.1-7.2-9.1-14.1c0.1-21.6,12-38.3,31.6-43.9
	C144.4,11.2,145.4,11.1,147.2,10.8z"/>
<path id="First_light" class="st3" d="M224.5,0.4c-5.8,11.8-3.4,21.9,1.9,32.3c3.5,6.9,5.5,14.9,0.1,21.8c-5.6,7.1-13.8,8-22.3,6.8
	c-11.6-1.7-16.3-7.7-15.5-19.6c1.4-19.9,12.5-34.6,30.5-40.1C220.6,1.1,221.9,1,224.5,0.4z"/>
</svg>
